<?xml version="1.0" encoding="UTF-8" standalone="no"?>
<svg width="133px" height="54px" viewBox="0 0 133 54" version="1.1" xmlns="http://www.w3.org/2000/svg" xmlns:xlink="http://www.w3.org/1999/xlink" xmlns:sketch="http://www.bohemiancoding.com/sketch/ns">
    <!-- Generator: Sketch 3.4.4 (17249) - http://www.bohemiancoding.com/sketch -->
    <title>logo</title>
    <desc>Created with Sketch.</desc>
    <defs></defs>
    <g id="Signup-Angel-User" stroke="none" stroke-width="1" fill="none" fill-rule="evenodd" sketch:type="MSPage">
        <g id="Desktop-HD" sketch:type="MSArtboardGroup" transform="translate(-120.000000, -13.000000)" fill="#FFFFFF">
            <g id="Logo-+-Home--------Features-+-Website-Monitoring-f" sketch:type="MSLayerGroup" transform="translate(120.000000, 16.000000)">
                <g id="logo">
                    <g id="Gorilla" sketch:type="MSShapeGroup">
                        <path d="M32.8257576,11.4310606 C32.7825758,11.4530303 28.4537879,13.5840909 24.2424242,13.5840909 C20.0310606,13.5840909 15.7022727,11.4530303 15.6590909,11.4310606 C15.0977273,11.1507576 14.4151515,11.3795455 14.1348485,11.9393939 L9.58939394,21.030303 C9.37045455,21.4681818 9.45606061,21.9962121 9.80227273,22.3424242 L13.3492424,25.8878788 C11.8143939,27.0212121 9.46969697,29.3371212 9.46969697,32.9030303 C9.46969697,38.1424242 14.6030303,45.4030303 24.2424242,45.4030303 C33.8818182,45.4030303 39.0151515,38.1424242 39.0151515,32.9030303 C39.0151515,29.3371212 36.6704545,27.0212121 35.1356061,25.8878788 L38.6825758,22.3424242 C39.0287879,21.9962121 39.1143939,21.4681818 38.8954545,21.030303 L34.35,11.9393939 C34.069697,11.3795455 33.3871212,11.1507576 32.8257576,11.4310606 L32.8257576,11.4310606 Z M32.5287879,25.280303 C32.2712121,25.5378788 32.1545455,25.9037879 32.2113636,26.2636364 C32.2689394,26.6234848 32.4962121,26.9340909 32.8212121,27.1 C32.8606061,27.1189394 36.7431818,29.1348485 36.7431818,32.9030303 C36.7431818,36.4689394 33.0765152,43.130303 24.2431818,43.130303 C15.4098485,43.130303 11.7431818,36.4689394 11.7431818,32.9030303 C11.7431818,29.1340909 15.6257576,27.1189394 15.6651515,27.1 C15.9901515,26.9340909 16.2174242,26.6234848 16.275,26.2636364 C16.3318182,25.9037879 16.2151515,25.5378788 15.9575758,25.280303 L11.9901515,21.3143939 L15.6810606,13.9318182 C17.3439394,14.6295455 20.7636364,15.8575758 24.2439394,15.8575758 C27.7242424,15.8575758 31.1431818,14.630303 32.8068182,13.9318182 L36.4977273,21.3143939 L32.5287879,25.280303 L32.5287879,25.280303 Z" id="Shape"></path>
                        <path d="M28.2795455,27.3409091 L24.2424242,29.3590909 L20.205303,27.3409091 C19.6431818,27.0613636 18.9606061,27.2878788 18.680303,27.8484848 C18.4,28.4106061 18.6272727,29.0931818 19.1886364,29.3742424 L23.1060606,31.3333333 L23.1060606,36.3121212 C23.1060606,36.9393939 23.6143939,37.4484848 24.2424242,37.4484848 C24.8704545,37.4484848 25.3787879,36.9393939 25.3787879,36.3121212 L25.3787879,31.3333333 L29.2962121,29.3742424 C29.8575758,29.0931818 30.0848485,28.4113636 29.8045455,27.8484848 C29.5242424,27.2878788 28.8416667,27.0613636 28.2795455,27.3409091 L28.2795455,27.3409091 Z" id="Shape"></path>
                        <path d="M32.1386364,20.0431818 C31.9409091,19.4477273 31.2962121,19.1265152 30.7015152,19.3242424 L24.2424242,21.4772727 L17.7840909,19.3242424 C17.1893939,19.1257576 16.5439394,19.4477273 16.3469697,20.0431818 C16.3068182,20.1621212 16.2939394,20.2825758 16.2939394,20.4015152 C16.2931818,20.4015152 16.2886364,20.4022727 16.2886364,20.4022727 C16.2886364,20.4166667 16.2931818,20.430303 16.2931818,20.444697 C16.294697,20.4856061 16.2992424,20.5257576 16.305303,20.5659091 C16.3924242,22.3689394 17.8742424,23.8121212 19.6984848,23.8121212 C20.4863636,23.8121212 21.2265152,23.5454545 21.8234848,23.0666667 L23.8848485,23.7537879 C24.0015152,23.7924242 24.1227273,23.8121212 24.2439394,23.8121212 C24.3651515,23.8121212 24.4863636,23.7924242 24.6030303,23.7537879 L26.6643939,23.0666667 C27.2613636,23.5454545 28.0015152,23.8121212 28.7893939,23.8121212 C30.6128788,23.8121212 32.094697,22.3689394 32.1825758,20.5659091 C32.1886364,20.5257576 32.1931818,20.4863636 32.194697,20.444697 C32.194697,20.430303 32.1992424,20.4166667 32.1992424,20.4022727 C32.1992424,20.4022727 32.194697,20.4015152 32.1939394,20.4015152 C32.1916667,20.2825758 32.1787879,20.1621212 32.1386364,20.0431818 L32.1386364,20.0431818 Z" id="Shape"></path>
                        <path d="M48.0954545,41.8401515 C47.9128788,40.4969697 47.1606061,35.1666667 45.919697,28.8166667 L46.0181818,28.8651515 C46.3909091,28.119697 49.5924242,21.5015152 47.2416667,18.7924242 C46.4136364,17.8378788 45.1325758,17.5462121 43.4378788,17.9030303 C41.5318182,10.769697 39.1007576,4.34772727 36.2416667,2.41590909 C34.0522727,0.935606061 29.5666667,0.0522727273 24.2424242,0.0522727273 L24.2424242,0.0522727273 C18.9174242,0.0522727273 14.4318182,0.935606061 12.2431818,2.41590909 C9.38409091,4.34772727 6.9530303,10.769697 5.0469697,17.9030303 C3.3530303,17.5462121 2.07121212,17.8378788 1.24318182,18.7924242 C-1.10757576,21.5015152 2.09393939,28.119697 2.46666667,28.8651515 L2.56515152,28.8166667 C1.32424242,35.1674242 0.571969697,40.4969697 0.389393939,41.8401515 C0.334090909,42.2484848 0.503787879,42.655303 0.833333333,42.9022727 C1.21742424,43.1909091 10.3863636,49.9484848 24.2424242,49.9484848 C38.0984848,49.9484848 47.2681818,43.1909091 47.6515152,42.9022727 C47.9810606,42.655303 48.1515152,42.2484848 48.0954545,41.8401515 L48.0954545,41.8401515 Z M2.95984848,20.2810606 C3.19318182,20.0121212 3.73257576,19.9537879 4.48181818,20.0992424 C4.07348485,21.7439394 3.69318182,23.4015152 3.34166667,25.0356061 C2.6469697,22.9348485 2.37348485,20.9575758 2.95984848,20.2810606 L2.95984848,20.2810606 Z M24.2424242,47.6757576 C13.0037879,47.6757576 4.8530303,42.8477273 2.73712121,41.455303 C4.12272727,31.6287879 8.46590909,7.71060606 13.5151515,4.29848485 C15.2886364,3.09924242 19.4992424,2.325 24.2424242,2.325 L24.2424242,2.325 C28.9848485,2.325 33.1962121,3.09924242 34.969697,4.29848485 C40.0189394,7.70984848 44.3613636,31.6287879 45.7477273,41.455303 C43.6318182,42.8477273 35.4810606,47.6757576 24.2424242,47.6757576 L24.2424242,47.6757576 Z M45.1431818,25.0356061 C44.7916667,23.4015152 44.4113636,21.7439394 44.0030303,20.0992424 C44.7522727,19.9537879 45.2916667,20.0113636 45.525,20.2810606 C46.1113636,20.9575758 45.8378788,22.9348485 45.1431818,25.0356061 L45.1431818,25.0356061 Z" id="Shape"></path>
                    </g>
                    <text id="Ping" sketch:type="MSTextLayer" font-family="MEgalopolis Extra" font-size="22" font-style="expanded" font-weight="633">
                        <tspan x="69" y="17">Ping</tspan>
                        <tspan x="69" y="43.4000089">Kong</tspan>
                    </text>
                </g>
            </g>
        </g>
    </g>
</svg>