<?xml version="1.0" encoding="UTF-8" standalone="no"?>
<svg width="133px" height="53px" viewBox="0 0 133 53" version="1.1" xmlns="http://www.w3.org/2000/svg" xmlns:xlink="http://www.w3.org/1999/xlink" xmlns:sketch="http://www.bohemiancoding.com/sketch/ns">
    <!-- Generator: Sketch 3.4.4 (17249) - http://www.bohemiancoding.com/sketch -->
    <title>logo</title>
    <desc>Created with Sketch.</desc>
    <defs></defs>
    <g id="Signup-Angel-User" stroke="none" stroke-width="1" fill="none" fill-rule="evenodd" sketch:type="MSPage">
        <g id="Desktop-HD" sketch:type="MSArtboardGroup" transform="translate(-120.000000, -14.000000)" fill="#FFFFFF">
            <g id="Logo-+-Home--------Features-+-Website-Monitoring-f" sketch:type="MSLayerGroup" transform="translate(120.000000, 14.000000)">
                <g id="logo" sketch:type="MSShapeGroup">
                    <g id="Gorilla" transform="translate(0.000000, 2.000000)">
                        <path d="M32.8257576,11.4310606 C32.7825758,11.4530303 28.4537879,13.5840909 24.2424242,13.5840909 C20.0310606,13.5840909 15.7022727,11.4530303 15.6590909,11.4310606 C15.0977273,11.1507576 14.4151515,11.3795455 14.1348485,11.9393939 L9.58939394,21.030303 C9.37045455,21.4681818 9.45606061,21.9962121 9.80227273,22.3424242 L13.3492424,25.8878788 C11.8143939,27.0212121 9.46969697,29.3371212 9.46969697,32.9030303 C9.46969697,38.1424242 14.6030303,45.4030303 24.2424242,45.4030303 C33.8818182,45.4030303 39.0151515,38.1424242 39.0151515,32.9030303 C39.0151515,29.3371212 36.6704545,27.0212121 35.1356061,25.8878788 L38.6825758,22.3424242 C39.0287879,21.9962121 39.1143939,21.4681818 38.8954545,21.030303 L34.35,11.9393939 C34.069697,11.3795455 33.3871212,11.1507576 32.8257576,11.4310606 L32.8257576,11.4310606 Z M32.5287879,25.280303 C32.2712121,25.5378788 32.1545455,25.9037879 32.2113636,26.2636364 C32.2689394,26.6234848 32.4962121,26.9340909 32.8212121,27.1 C32.8606061,27.1189394 36.7431818,29.1348485 36.7431818,32.9030303 C36.7431818,36.4689394 33.0765152,43.130303 24.2431818,43.130303 C15.4098485,43.130303 11.7431818,36.4689394 11.7431818,32.9030303 C11.7431818,29.1340909 15.6257576,27.1189394 15.6651515,27.1 C15.9901515,26.9340909 16.2174242,26.6234848 16.275,26.2636364 C16.3318182,25.9037879 16.2151515,25.5378788 15.9575758,25.280303 L11.9901515,21.3143939 L15.6810606,13.9318182 C17.3439394,14.6295455 20.7636364,15.8575758 24.2439394,15.8575758 C27.7242424,15.8575758 31.1431818,14.630303 32.8068182,13.9318182 L36.4977273,21.3143939 L32.5287879,25.280303 L32.5287879,25.280303 Z" id="Shape"></path>
                        <path d="M28.2795455,27.3409091 L24.2424242,29.3590909 L20.205303,27.3409091 C19.6431818,27.0613636 18.9606061,27.2878788 18.680303,27.8484848 C18.4,28.4106061 18.6272727,29.0931818 19.1886364,29.3742424 L23.1060606,31.3333333 L23.1060606,36.3121212 C23.1060606,36.9393939 23.6143939,37.4484848 24.2424242,37.4484848 C24.8704545,37.4484848 25.3787879,36.9393939 25.3787879,36.3121212 L25.3787879,31.3333333 L29.2962121,29.3742424 C29.8575758,29.0931818 30.0848485,28.4113636 29.8045455,27.8484848 C29.5242424,27.2878788 28.8416667,27.0613636 28.2795455,27.3409091 L28.2795455,27.3409091 Z" id="Shape"></path>
                        <path d="M32.1386364,20.0431818 C31.9409091,19.4477273 31.2962121,19.1265152 30.7015152,19.3242424 L24.2424242,21.4772727 L17.7840909,19.3242424 C17.1893939,19.1257576 16.5439394,19.4477273 16.3469697,20.0431818 C16.3068182,20.1621212 16.2939394,20.2825758 16.2939394,20.4015152 C16.2931818,20.4015152 16.2886364,20.4022727 16.2886364,20.4022727 C16.2886364,20.4166667 16.2931818,20.430303 16.2931818,20.444697 C16.294697,20.4856061 16.2992424,20.5257576 16.305303,20.5659091 C16.3924242,22.3689394 17.8742424,23.8121212 19.6984848,23.8121212 C20.4863636,23.8121212 21.2265152,23.5454545 21.8234848,23.0666667 L23.8848485,23.7537879 C24.0015152,23.7924242 24.1227273,23.8121212 24.2439394,23.8121212 C24.3651515,23.8121212 24.4863636,23.7924242 24.6030303,23.7537879 L26.6643939,23.0666667 C27.2613636,23.5454545 28.0015152,23.8121212 28.7893939,23.8121212 C30.6128788,23.8121212 32.094697,22.3689394 32.1825758,20.5659091 C32.1886364,20.5257576 32.1931818,20.4863636 32.194697,20.444697 C32.194697,20.430303 32.1992424,20.4166667 32.1992424,20.4022727 C32.1992424,20.4022727 32.194697,20.4015152 32.1939394,20.4015152 C32.1916667,20.2825758 32.1787879,20.1621212 32.1386364,20.0431818 L32.1386364,20.0431818 Z" id="Shape"></path>
                        <path d="M48.0954545,41.8401515 C47.9128788,40.4969697 47.1606061,35.1666667 45.919697,28.8166667 L46.0181818,28.8651515 C46.3909091,28.119697 49.5924242,21.5015152 47.2416667,18.7924242 C46.4136364,17.8378788 45.1325758,17.5462121 43.4378788,17.9030303 C41.5318182,10.769697 39.1007576,4.34772727 36.2416667,2.41590909 C34.0522727,0.935606061 29.5666667,0.0522727273 24.2424242,0.0522727273 L24.2424242,0.0522727273 C18.9174242,0.0522727273 14.4318182,0.935606061 12.2431818,2.41590909 C9.38409091,4.34772727 6.9530303,10.769697 5.0469697,17.9030303 C3.3530303,17.5462121 2.07121212,17.8378788 1.24318182,18.7924242 C-1.10757576,21.5015152 2.09393939,28.119697 2.46666667,28.8651515 L2.56515152,28.8166667 C1.32424242,35.1674242 0.571969697,40.4969697 0.389393939,41.8401515 C0.334090909,42.2484848 0.503787879,42.655303 0.833333333,42.9022727 C1.21742424,43.1909091 10.3863636,49.9484848 24.2424242,49.9484848 C38.0984848,49.9484848 47.2681818,43.1909091 47.6515152,42.9022727 C47.9810606,42.655303 48.1515152,42.2484848 48.0954545,41.8401515 L48.0954545,41.8401515 Z M2.95984848,20.2810606 C3.19318182,20.0121212 3.73257576,19.9537879 4.48181818,20.0992424 C4.07348485,21.7439394 3.69318182,23.4015152 3.34166667,25.0356061 C2.6469697,22.9348485 2.37348485,20.9575758 2.95984848,20.2810606 L2.95984848,20.2810606 Z M24.2424242,47.6757576 C13.0037879,47.6757576 4.8530303,42.8477273 2.73712121,41.455303 C4.12272727,31.6287879 8.46590909,7.71060606 13.5151515,4.29848485 C15.2886364,3.09924242 19.4992424,2.325 24.2424242,2.325 L24.2424242,2.325 C28.9848485,2.325 33.1962121,3.09924242 34.969697,4.29848485 C40.0189394,7.70984848 44.3613636,31.6287879 45.7477273,41.455303 C43.6318182,42.8477273 35.4810606,47.6757576 24.2424242,47.6757576 L24.2424242,47.6757576 Z M45.1431818,25.0356061 C44.7916667,23.4015152 44.4113636,21.7439394 44.0030303,20.0992424 C44.7522727,19.9537879 45.2916667,20.0113636 45.525,20.2810606 C46.1113636,20.9575758 45.8378788,22.9348485 45.1431818,25.0356061 L45.1431818,25.0356061 Z" id="Shape"></path>
                    </g>
                    <path d="M83.234,8.704 C83.234,4.942 79.362,3.754 75.688,3.688 C75.688,3.688 75.688,3.688 70.32,3.688 C70.32,3.688 70.496,8.99 70.496,11.388 C70.496,14.71 70.386,19 70.386,19 L75.468,19 C75.468,17.086 75.446,15.964 75.424,14.336 C78.064,14.336 83.234,13.236 83.234,8.704 L83.234,8.704 Z M75.424,11.432 C75.424,10.266 75.38,8.352 75.424,6.878 C76.436,6.834 78.262,6.944 78.262,8.99 C78.262,10.97 76.414,11.41 75.424,11.432 L75.424,11.432 Z M90.582,19 C90.472,14.402 90.494,15.37 90.494,13.038 C90.494,10.53 90.758,7.076 90.758,7.076 C90.758,7.076 87.722,7.208 85.258,7.076 C85.258,7.076 85.478,10.486 85.478,12.928 C85.478,15.568 85.324,19 85.324,19 L90.582,19 Z M90.802,2.918 C90.802,1.378 89.548,0.124 88.008,0.124 C86.468,0.124 85.214,1.378 85.214,2.918 C85.214,4.48 86.468,5.712 88.008,5.712 C89.548,5.712 90.802,4.48 90.802,2.918 L90.802,2.918 Z M107.28,19 C107.236,17.592 107.126,14.754 107.126,11.058 C107.126,8.44 105.784,6.68 102.88,6.68 C100.57,6.68 99.184,7.714 98.612,9.122 C98.634,8.506 98.656,7.802 98.678,7.076 L93.552,7.076 C93.574,8.044 93.574,8.99 93.574,9.804 C93.574,14.182 93.42,19 93.42,19 L98.7,19 C98.634,17.548 98.546,14.886 98.546,13.06 C98.546,11.476 98.81,9.958 100.24,9.958 C101.648,9.958 102.044,11.19 102.044,13.06 C102.044,14.952 101.956,17.614 101.934,19 L107.28,19 Z M123.912,9.782 L124.044,7.076 L119.622,7.384 C118.632,6.944 117.422,6.68 115.992,6.68 C112.054,6.68 109.612,8.594 109.612,11.344 C109.612,12.906 110.426,14.138 111.856,14.908 C111.064,15.678 110.316,16.69 110.316,17.922 C110.316,18.538 110.448,19.044 110.69,19.44 C109.964,20.056 109.15,21.024 109.15,22.3 C109.15,24.588 111.174,25.952 115.838,25.952 C120.854,25.952 124.242,24.016 124.242,21.068 C124.242,18.296 122.746,16.734 119.93,16.734 L114.936,16.734 C114.21,16.734 113.88,16.58 113.88,16.074 C113.88,15.92 113.902,15.766 113.968,15.612 C114.584,15.722 115.266,15.788 115.992,15.788 C119.974,15.788 122.35,14.028 122.35,11.344 C122.35,10.794 122.24,10.266 122.064,9.782 L123.912,9.782 Z M118.786,20.958 C119.49,20.958 119.93,21.244 119.93,21.97 C119.93,23.048 118.324,23.488 116.014,23.488 C113.616,23.488 112.472,23.004 112.472,21.838 C112.472,21.464 112.56,21.112 112.714,20.782 C113.22,20.892 113.77,20.958 114.298,20.958 L118.786,20.958 Z M114.474,11.542 C114.474,10.332 114.826,9.562 115.926,9.562 C117.092,9.562 117.532,10.354 117.532,11.542 C117.532,12.598 117.18,13.544 116.036,13.544 C114.936,13.544 114.474,12.73 114.474,11.542 L114.474,11.542 Z M75.402,36.7980089 C75.468,34.1580089 75.666,30.0880089 75.666,30.0880089 L70.32,30.0880089 C70.32,30.0880089 70.474,35.3900089 70.474,37.7880089 C70.474,41.1100089 70.386,45.4000089 70.386,45.4000089 L75.468,45.4000089 C75.468,42.8700089 75.402,40.9340089 75.402,38.9980089 C76.458,40.8020089 78.944,44.9600089 79.956,45.7960089 L85.5,45.0700089 C83.982,43.4420089 81.408,39.5920089 79.824,37.4580089 C81.936,34.5980089 84.84,30.2640089 84.84,30.2640089 L80.352,29.9560089 C79.56,31.7160089 77.58,34.8400089 76.304,36.7980089 L75.402,36.7980089 Z M92.166,33.0800089 C87.7,33.0800089 84.95,35.4780089 84.95,39.3940089 C84.95,43.2440089 87.7,45.7960089 92.166,45.7960089 C96.676,45.7960089 99.382,43.2440089 99.382,39.3940089 C99.382,35.4780089 96.676,33.0800089 92.166,33.0800089 L92.166,33.0800089 Z M90.098,39.3060089 C90.098,37.4140089 90.582,36.2920089 92.056,36.2920089 C93.706,36.2920089 94.212,37.8980089 94.212,39.5040089 C94.212,41.0880089 93.838,42.4960089 92.188,42.4960089 C90.714,42.4960089 90.098,41.1760089 90.098,39.3060089 L90.098,39.3060089 Z M115.442,45.4000089 C115.398,43.9920089 115.288,41.1540089 115.288,37.4580089 C115.288,34.8400089 113.946,33.0800089 111.042,33.0800089 C108.732,33.0800089 107.346,34.1140089 106.774,35.5220089 C106.796,34.9060089 106.818,34.2020089 106.84,33.4760089 L101.714,33.4760089 C101.736,34.4440089 101.736,35.3900089 101.736,36.2040089 C101.736,40.5820089 101.582,45.4000089 101.582,45.4000089 L106.862,45.4000089 C106.796,43.9480089 106.708,41.2860089 106.708,39.4600089 C106.708,37.8760089 106.972,36.3580089 108.402,36.3580089 C109.81,36.3580089 110.206,37.5900089 110.206,39.4600089 C110.206,41.3520089 110.118,44.0140089 110.096,45.4000089 L115.442,45.4000089 Z M132.074,36.1820089 L132.206,33.4760089 L127.784,33.7840089 C126.794,33.3440089 125.584,33.0800089 124.154,33.0800089 C120.216,33.0800089 117.774,34.9940089 117.774,37.7440089 C117.774,39.3060089 118.588,40.5380089 120.018,41.3080089 C119.226,42.0780089 118.478,43.0900089 118.478,44.3220089 C118.478,44.9380089 118.61,45.4440089 118.852,45.8400089 C118.126,46.4560089 117.312,47.4240089 117.312,48.7000089 C117.312,50.9880089 119.336,52.3520089 124,52.3520089 C129.016,52.3520089 132.404,50.4160089 132.404,47.4680089 C132.404,44.6960089 130.908,43.1340089 128.092,43.1340089 L123.098,43.1340089 C122.372,43.1340089 122.042,42.9800089 122.042,42.4740089 C122.042,42.3200089 122.064,42.1660089 122.13,42.0120089 C122.746,42.1220089 123.428,42.1880089 124.154,42.1880089 C128.136,42.1880089 130.512,40.4280089 130.512,37.7440089 C130.512,37.1940089 130.402,36.6660089 130.226,36.1820089 L132.074,36.1820089 Z M126.948,47.3580089 C127.652,47.3580089 128.092,47.6440089 128.092,48.3700089 C128.092,49.4480089 126.486,49.8880089 124.176,49.8880089 C121.778,49.8880089 120.634,49.4040089 120.634,48.2380089 C120.634,47.8640089 120.722,47.5120089 120.876,47.1820089 C121.382,47.2920089 121.932,47.3580089 122.46,47.3580089 L126.948,47.3580089 Z M122.636,37.9420089 C122.636,36.7320089 122.988,35.9620089 124.088,35.9620089 C125.254,35.9620089 125.694,36.7540089 125.694,37.9420089 C125.694,38.9980089 125.342,39.9440089 124.198,39.9440089 C123.098,39.9440089 122.636,39.1300089 122.636,37.9420089 L122.636,37.9420089 Z" id="Ping"></path>
                </g>
            </g>
        </g>
    </g>
</svg>